# xmcd
#
# Track frame offsets:
#	150
#	13032
#	21879
#	33396
#	46988
#	61715
#	73162
#	86839
#	99558
#	114840
#	126130
#	140570
#	157249
#	171949
#	186503
#	199290
#	210245
#	223752
#	233204
#	243943
#	257662
#	272099
#	287659
#	300021
#	312821
#
# Disc length: 4333
#
# Revision: 1
# Processed by: cddbd v1.5.1PL0 Copyright (c) Steve Scherf et al.
# Submitted via: CDex 1.50beta10
# Normalized: r0:TDELIM( - )
#
DISCID=6710eb19
DTITLE=Various Artist - 25 Jazz Greats - Volume 2
DYEAR=2001
DGENRE=Jazz
TTITLE0=Count Basie - Jazz Me Blues
TTITLE1=Ella Fitzgerald - Lover Come Back To Me
TTITLE2=Nat King Cole - Scotchin' With The Soda
TTITLE3=Woody Herman - Is You Is Or Is You Ain't My Baby
TTITLE4=Duke Ellington - Creole Love Call
TTITLE5=Artie Shaw - All Alone
TTITLE6=Luis Armstrong - Ain't Misbehavin
TTITLE7=Grapelli and Reinhardt - Miss Annabelle Lee
TTITLE8=Benny Goodman - Tiger Rag
TTITLE9=Joe Venuti Trio - Wild Cat
TTITLE10=Charlie Parker - Bird Of Paradise
TTITLE11=Lena Horne - Everytime We Say Goodbye
TTITLE12=Lionel Hampton - Nola
TTITLE13=Sarah Vaughan - Lover Man
TTITLE14=Count Basie - Swinging The Blues
TTITLE15=Nat King Cole - Straighten Up and Fly Right
TTITLE16=Ella Fitzgerald - It's Wonderful
TTITLE17=Charlie Parker - Theme
TTITLE18=Luis Armstrong - Yes Suh!
TTITLE19=Bix Biederbecke - Wa Da Da
TTITLE20=Duke Ellington - Black and Tan Fantasie
TTITLE21=Benny Goodman - My Melancholy Baby
TTITLE22=Stephane Grapelli - Fiddle Blues
TTITLE23=Cab Calloway - The Jumpin' Jive
TTITLE24=Artie Shaw - Blue Skies
EXTD=YEAR: 2001
EXTT0=
EXTT1=
EXTT2=
EXTT3=
EXTT4=
EXTT5=
EXTT6=
EXTT7=
EXTT8=
EXTT9=
EXTT10=
EXTT11=
EXTT12=
EXTT13=
EXTT14=
EXTT15=
EXTT16=
EXTT17=
EXTT18=
EXTT19=
EXTT20=
EXTT21=
EXTT22=
EXTT23=
EXTT24=
PLAYORDER=
